<?xml version="1.0" encoding="UTF-8" standalone="no"?>
<svg
   fill="none"
   height="439"
   viewBox="0 0 440 439"
   width="440"
   version="1.1"
   id="svg6"
   sodipodi:docname="Sticker-02-colored.svg"
   inkscape:version="1.1.2 (0a00cf5339, 2022-02-04, custom)"
   xmlns:inkscape="http://www.inkscape.org/namespaces/inkscape"
   xmlns:sodipodi="http://sodipodi.sourceforge.net/DTD/sodipodi-0.dtd"
   xmlns="http://www.w3.org/2000/svg"
   xmlns:svg="http://www.w3.org/2000/svg">
  <defs
     id="defs10" />
  <sodipodi:namedview
     id="namedview8"
     pagecolor="#505050"
     bordercolor="#eeeeee"
     borderopacity="1"
     inkscape:pageshadow="0"
     inkscape:pageopacity="0"
     inkscape:pagecheckerboard="0"
     showgrid="false"
     inkscape:zoom="2.0296128"
     inkscape:cx="255.46745"
     inkscape:cy="189.69136"
     inkscape:window-width="1920"
     inkscape:window-height="1059"
     inkscape:window-x="0"
     inkscape:window-y="0"
     inkscape:window-maximized="1"
     inkscape:current-layer="svg6" />
  <path
     d="m 385.519,298.083 v -34.181 c 0,-12.961 -10.553,-23.398 -23.399,-23.398 -7.685,0 -14.567,3.785 -18.925,9.634 -4.244,-5.849 -11.126,-9.634 -18.926,-9.634 -2.638,0 -5.276,0.458 -7.685,1.261 -2.408,-0.803 -5.047,-1.261 -7.685,-1.261 H 298.576 V 145.532 C 298.576,116.513 274.948,93 246.044,93 H 84.4323 c -29.019,0 -52.5324,23.628 -52.5324,52.532 v 147.619 c 0,29.019 23.6281,52.532 52.5324,52.532 h 79.3717 c 3.327,0 6.538,-0.688 9.406,-1.95 2.982,1.377 6.308,2.065 9.749,2.065 h 20.187 c 3.097,0 6.194,-0.574 9.062,-1.835 0.344,-0.115 0.688,-0.23 0.917,-0.459 1.147,0.459 2.409,0.803 3.556,1.032 3.441,0.803 7.111,1.262 10.667,1.147 2.523,0 8.373,-0.114 12.961,-1.376 1.032,-0.23 1.95,-0.574 2.982,-0.918 3.212,1.491 6.653,2.409 10.323,2.409 3.785,0 7.341,-0.918 10.667,-2.523 0.23,0.114 0.459,0.229 0.688,0.344 2.868,1.376 6.08,2.064 9.176,2.179 h 0.574 0.229 0.115 0.688 c 1.95,-0.115 3.9,-0.344 5.735,-0.918 1.721,0.459 3.556,0.803 5.506,0.803 h 21.563 c 2.18,0 4.244,-0.229 6.194,-0.803 1.721,0.574 3.671,0.803 5.506,0.803 h 26.151 c 2.065,0 4.129,-0.229 6.079,-0.803 1.721,0.574 3.556,0.803 5.506,0.803 h 26.151 c 13.076,0 23.858,-10.667 23.858,-23.857 0,-12.617 -9.979,-23.055 -22.481,-23.743 z"
     fill="#ffffff"
     id="path2"
     sodipodi:insensitive="true" />
  <path
     d="M 280.909,145.533 V 322.17 c 0,0.803 -0.229,1.606 -0.458,2.294 v 0.115 c -0.345,0.688 -0.689,1.377 -1.262,1.835 -0.574,0.574 -1.147,0.918 -1.835,1.262 -0.689,0.344 -1.491,0.459 -2.18,0.459 -0.802,0 -1.72,-0.23 -2.408,-0.574 -0.803,-0.344 -1.491,-0.917 -1.95,-1.491 -0.574,-0.688 -0.918,-1.376 -1.147,-2.179 v -0.229 c -0.115,-0.459 -0.23,-0.918 -0.23,-1.492 v -23.398 c -0.114,-0.115 -0.114,-0.23 -0.229,-0.344 -0.229,-0.23 -0.573,-0.344 -0.918,-0.344 h -7.111 c -0.344,0 -0.688,0.114 -0.918,0.344 -0.229,0.229 -0.344,0.573 -0.344,0.917 v 22.94 c 0,1.491 -0.573,2.982 -1.72,4.129 -1.032,1.033 -2.524,1.721 -4.129,1.721 -1.606,0 -2.983,-0.574 -4.13,-1.721 -1.032,-1.032 -1.72,-2.523 -1.72,-4.129 v -58.038 -0.115 -0.114 c 0,-1.491 0.573,-2.982 1.72,-4.129 1.033,-1.033 2.524,-1.721 4.13,-1.721 1.605,0 2.982,0.574 4.129,1.721 1.032,1.032 1.72,2.523 1.72,4.129 v 0.114 0.115 21.564 c 0,0.344 0.115,0.688 0.344,0.917 0.23,0.23 0.574,0.344 0.918,0.344 h 7.111 c 0.345,0 0.689,-0.114 0.918,-0.344 0.115,-0.114 0.229,-0.229 0.229,-0.344 V 162.623 H 61.7184 v 130.528 c 0,12.732 10.323,23.055 23.0546,23.055 h 79.372 c 3.212,0 5.85,2.638 5.85,5.85 0,3.211 -2.638,5.849 -5.85,5.849 H 84.773 c -19.1548,0 -34.754,-15.599 -34.754,-34.754 V 145.533 c 0,-19.155 15.5992,-34.754 34.754,-34.754 h 161.612 c 18.81,-0.115 34.524,15.485 34.524,34.754 z m -11.699,5.391 v -5.506 c 0,-12.731 -10.323,-23.054 -23.055,-23.054 H 84.4289 c -12.7316,0 -23.0546,10.323 -23.0546,23.054 v 5.506 z m -65.952,165.053 h -13.65 c -0.114,0 -0.229,0 -0.344,-0.115 -0.114,0 -0.229,-0.115 -0.229,-0.229 -0.115,-0.115 -0.115,-0.23 -0.115,-0.345 v -0.344 l 19.843,-49.435 c 0.344,-0.803 0.459,-1.721 0.344,-2.524 -0.114,-0.917 -0.344,-1.72 -0.917,-2.408 -0.459,-0.688 -1.147,-1.262 -1.95,-1.721 -0.803,-0.459 -1.606,-0.573 -2.523,-0.573 h -20.876 -0.344 c -0.803,0 -1.491,0.114 -2.294,0.459 -0.688,0.344 -1.376,0.688 -1.95,1.261 -0.573,0.574 -1.032,1.147 -1.261,1.95 -0.345,0.688 -0.459,1.491 -0.459,2.294 0,0.803 0.114,1.491 0.459,2.294 0.344,0.688 0.688,1.377 1.261,1.95 0.574,0.574 1.147,1.032 1.95,1.262 0.688,0.344 1.491,0.459 2.294,0.459 h 0.23 10.781 c 0.115,0 0.23,0 0.344,0.114 0.115,0 0.23,0.115 0.23,0.23 0.114,0.114 0.114,0.229 0.114,0.344 v 0.344 l -17.204,42.897 c -0.345,0.803 -0.459,1.606 -0.459,2.409 v 5.276 c 0,1.721 0.688,3.327 1.835,4.588 1.262,1.262 2.867,1.836 4.588,1.836 h 20.187 c 0.803,0 1.606,-0.115 2.294,-0.459 0.688,-0.344 1.376,-0.803 1.95,-1.262 0.573,-0.573 1.032,-1.262 1.262,-1.95 0.344,-0.688 0.458,-1.491 0.458,-2.294 0,-1.606 -0.688,-3.097 -1.72,-4.244 -1.032,-1.376 -2.638,-2.064 -4.129,-2.064 z m 37.965,-54.024 c -1.032,-1.147 -2.523,-2.064 -4.358,-2.523 -1.835,-0.574 -4.129,-0.803 -7.112,-0.803 -2.752,0 -5.849,0.229 -7.799,0.803 -1.721,0.459 -3.327,1.261 -4.474,2.523 -1.147,1.262 -1.949,2.982 -2.408,5.047 -0.459,2.065 -0.688,4.703 -0.688,7.914 0,3.097 0,5.506 0.114,7.456 0.115,1.491 0.23,3.097 0.574,4.588 0.229,1.032 0.688,1.95 1.147,2.867 0.573,0.803 1.147,1.491 1.835,2.065 0.918,0.803 1.95,1.606 3.097,2.179 1.262,0.688 2.523,1.376 3.785,2.065 1.262,0.688 2.523,1.376 3.67,2.064 1.147,0.574 2.065,1.377 2.983,2.18 0.344,0.344 0.688,0.802 1.032,1.261 0.229,0.23 0.344,0.574 0.459,0.918 0.114,0.344 0.229,0.573 0.229,0.917 0.115,0.459 0.115,0.918 0.115,1.377 0.114,0.688 0.114,1.72 0.114,2.867 0,1.721 -0.114,3.327 -0.229,5.047 -0.115,0.918 -0.344,1.835 -0.688,2.753 -0.344,0.573 -0.803,0.917 -1.491,1.147 -0.574,0.229 -2.753,0.229 -3.671,0.229 -0.688,0 -1.491,-0.114 -2.179,-0.229 -0.573,-0.23 -1.032,-0.688 -1.376,-1.262 -0.344,-0.803 -0.574,-1.72 -0.689,-2.638 -0.114,-1.491 -0.229,-2.982 -0.229,-4.473 v -0.459 c -0.115,-1.147 -0.803,-2.294 -1.606,-2.982 -0.917,-0.803 -2.064,-1.262 -3.211,-1.262 -1.147,0 -2.294,0.459 -3.212,1.262 -0.917,0.803 -1.491,1.835 -1.606,2.982 v 0.573 0.115 0.115 2.753 c 0,3.441 0.23,6.308 0.688,8.487 0.574,2.18 1.377,3.786 2.524,5.047 1.147,1.262 2.753,2.065 4.359,2.409 2.179,0.459 4.358,0.803 6.537,0.688 2.983,0 6.768,-0.229 8.718,-0.803 1.835,-0.459 3.44,-1.491 4.702,-2.982 1.262,-1.491 2.065,-3.556 2.524,-6.079 0.573,-2.638 0.803,-6.079 0.803,-10.208 0,-2.983 -0.115,-5.391 -0.23,-7.226 0,-1.491 -0.344,-3.097 -0.803,-4.474 -0.344,-1.032 -0.917,-2.064 -1.72,-2.867 -0.803,-0.803 -1.721,-1.491 -2.638,-2.179 -0.918,-0.574 -1.836,-1.033 -2.753,-1.492 -1.033,-0.573 -2.179,-1.147 -3.326,-1.72 -1.147,-0.574 -2.294,-1.147 -3.327,-1.721 -0.917,-0.573 -1.835,-1.147 -2.638,-1.835 -0.344,-0.344 -0.803,-0.688 -1.147,-1.032 -0.229,-0.459 -0.459,-0.803 -0.573,-1.376 -0.115,-0.689 -0.23,-1.377 -0.23,-2.065 v -3.326 c 0,-1.262 0,-2.524 0.23,-3.785 0.114,-0.803 0.344,-1.491 0.688,-2.18 0.344,-0.458 0.803,-0.803 1.376,-1.032 0.574,-0.229 2.065,-0.229 2.982,-0.229 1.95,0 3.212,0.573 3.671,1.72 0.344,0.688 0.573,1.491 0.688,2.294 v 2.409 c 0,1.261 0.574,2.523 1.491,3.441 0.918,0.917 2.179,1.491 3.556,1.491 1.261,0 2.523,-0.574 3.556,-1.491 0.917,-0.918 1.491,-2.18 1.491,-3.441 v -2.409 c 0,-2.294 -0.23,-4.588 -0.689,-6.882 -0.802,-2.064 -1.491,-3.556 -2.638,-4.588 z m 143.031,53.909 h -15.37 c -0.573,0 -1.147,-0.459 -1.147,-1.147 v -50.812 c 0,-3.097 -2.523,-5.62 -5.62,-5.62 -3.097,0 -5.621,2.523 -5.621,5.62 v 62.282 c 0,0.918 0.689,1.606 1.606,1.606 h 26.152 c 3.326,0 6.079,-2.638 6.079,-6.079 -0.115,-3.212 -2.753,-5.85 -6.079,-5.85 z m -37.851,0 h -15.37 c -0.573,0 -1.147,-0.459 -1.147,-1.147 v -50.812 c 0,-3.097 -2.523,-5.62 -5.62,-5.62 -3.097,0 -5.62,2.523 -5.62,5.62 v 62.282 c 0,0.918 0.688,1.606 1.605,1.606 h 26.152 c 3.326,0 5.964,-2.638 5.964,-6.079 0.115,-3.212 -2.638,-5.85 -5.964,-5.85 z m -48.977,-46.109 h 11.47 c 3.212,0 5.735,-2.524 5.735,-5.735 0,-3.212 -2.523,-5.735 -5.735,-5.735 h -22.022 c -1.262,0 -2.294,1.032 -2.294,2.294 v 65.149 c 0,1.262 1.032,2.179 2.179,2.179 h 21.564 c 3.326,0 5.964,-2.638 5.964,-6.079 0,-3.326 -2.638,-5.964 -5.964,-5.964 h -11.126 c -0.803,0 -1.377,-0.574 -1.377,-1.376 v -15.255 c 0,-0.803 0.574,-1.377 1.377,-1.377 h 11.584 c 2.983,0 5.506,-2.409 5.506,-5.505 0,-2.983 -2.409,-5.506 -5.506,-5.506 h -11.584 c -0.803,0 -1.377,-0.574 -1.377,-1.376 v -14.338 c 0.23,-0.688 0.918,-1.376 1.606,-1.376 z"
     fill="#000000"
     id="path4"
     sodipodi:nodetypes="ssccccsccccsccssssscsssccsssssccsssscsccssssssssscscssssccssccsccccsscscccscscscsccsccsscsssccscsccscsssccccccccccccscccscccsccscccccscccccscscsscccccccsscccsccscscssccssssssssscsssssssssscssssssssssssssssssssscs"
     sodipodi:insensitive="true" />
  <path
     d="m 113.104,177.305 -38.1951,45.421 c -0.4588,0.459 -1.0323,0.688 -1.6058,0.688 -0.4588,0 -0.9176,-0.115 -1.3764,-0.459 -0.9176,-0.688 -1.0323,-2.064 -0.2294,-2.867 l 38.1947,-45.421 c 0.688,-0.918 2.065,-1.033 2.868,-0.23 1.032,0.689 1.147,1.95 0.344,2.868 z m -30.0514,19.958 c -6.0791,0 -11.1259,-4.933 -11.1259,-11.126 0,-6.079 4.9321,-11.126 11.1259,-11.126 6.1937,0 11.1258,4.932 11.1258,11.126 0,6.079 -5.0468,11.126 -11.1258,11.126 z m 0,-6.424 c 2.5233,0 4.7026,-2.064 4.7026,-4.702 0,-2.524 -2.0646,-4.703 -4.7026,-4.703 -2.6381,0 -4.7027,2.065 -4.7027,4.703 0,2.638 2.1793,4.702 4.7027,4.702 z m 18.6964,9.291 c 6.079,0 11.125,4.932 11.125,11.126 0,6.079 -4.932,11.126 -11.125,11.126 -6.1942,0 -11.1263,-4.932 -11.1263,-11.126 0,-6.079 5.0468,-11.126 11.1263,-11.126 z m 0,6.423 c -2.5238,0 -4.7031,2.065 -4.7031,4.703 0,2.523 2.0646,4.703 4.7031,4.703 2.638,0 4.702,-2.065 4.702,-4.703 0,-2.638 -2.179,-4.703 -4.702,-4.703 z m 25.578,11.7 c -1.147,0 -2.065,0.917 -2.065,2.064 0,1.147 0.918,2.065 2.065,2.065 h 27.298 c 1.147,0 2.065,-0.918 2.065,-2.065 0,-1.147 -0.918,-2.064 -2.065,-2.064 z"
     fill="#000000"
     id="path884"
     sodipodi:nodetypes="ccssccccsssssssssssssssssssssssssss"
     style="display:inline;fill:#f15a24;fill-opacity:1"
     sodipodi:insensitive="true" />
</svg>
