<?xml version="1.0" encoding="UTF-8" standalone="no"?>
<svg
   fill="none"
   height="439"
   viewBox="0 0 439 439"
   width="439"
   version="1.1"
   id="svg6"
   sodipodi:docname="Sticker-01-colored.svg"
   inkscape:version="1.1.2 (0a00cf5339, 2022-02-04, custom)"
   xmlns:inkscape="http://www.inkscape.org/namespaces/inkscape"
   xmlns:sodipodi="http://sodipodi.sourceforge.net/DTD/sodipodi-0.dtd"
   xmlns="http://www.w3.org/2000/svg"
   xmlns:svg="http://www.w3.org/2000/svg">
  <defs
     id="defs10" />
  <sodipodi:namedview
     id="namedview8"
     pagecolor="#505050"
     bordercolor="#eeeeee"
     borderopacity="1"
     inkscape:pageshadow="0"
     inkscape:pageopacity="0"
     inkscape:pagecheckerboard="0"
     showgrid="false"
     inkscape:zoom="4"
     inkscape:cx="115"
     inkscape:cy="250.5"
     inkscape:window-width="1920"
     inkscape:window-height="1059"
     inkscape:window-x="0"
     inkscape:window-y="0"
     inkscape:window-maximized="1"
     inkscape:current-layer="svg6" />
  <path
     d="M 316.371,68 H 122.891 C 88.15,68 60,96.2874 60,130.891 v 176.728 c 0,34.741 28.2874,62.891 62.891,62.891 h 95.024 c 3.982,0 7.827,-0.824 11.26,-2.334 3.57,1.647 7.552,2.471 11.672,2.471 h 24.168 c 3.707,0 7.415,-0.686 10.848,-2.197 0.412,-0.137 0.824,-0.274 1.098,-0.549 1.373,0.549 2.884,0.961 4.257,1.236 4.12,0.961 8.514,1.51 12.771,1.373 3.021,0 10.024,-0.137 15.516,-1.648 1.236,-0.274 2.472,-0.686 3.571,-1.098 3.845,1.785 7.964,2.883 12.358,2.883 4.532,0 8.789,-1.098 12.771,-3.021 0.274,0.138 0.549,0.275 0.824,0.412 3.433,1.648 7.278,2.472 10.985,2.609 h 0.687 0.274 0.138 0.824 c 3.432,-0.137 6.728,-0.824 9.886,-2.197 3.433,-1.373 6.454,-3.433 9.201,-6.042 2.609,-2.609 4.668,-5.767 6.042,-9.063 l 0.686,-1.51 0.137,-0.412 c 0.962,-2.884 1.511,-5.905 1.511,-9.063 V 130.891 C 379.263,96.2874 351.113,68 316.371,68 Z"
     fill="#ffffff"
     id="path2" />
  <path
     d="m 357.978,342.359 c 0,0.962 -0.274,1.923 -0.549,2.747 v 0.137 c -0.412,0.824 -0.824,1.648 -1.51,2.197 -0.687,0.687 -1.373,1.099 -2.197,1.511 -0.824,0.412 -1.785,0.549 -2.609,0.549 -0.962,0 -2.06,-0.275 -2.884,-0.687 -0.961,-0.412 -1.785,-1.098 -2.334,-1.785 -0.687,-0.824 -1.099,-1.648 -1.374,-2.609 v -0.274 c -0.137,-0.55 -0.274,-1.099 -0.274,-1.786 v -28.012 c -0.138,-0.138 -0.138,-0.275 -0.275,-0.412 -0.275,-0.275 -0.686,-0.412 -1.098,-0.412 h -8.789 c -0.412,0 -0.824,0.137 -1.098,0.412 -0.275,0.274 -0.412,0.686 -0.412,1.098 v 27.464 c 0,1.785 -0.687,3.57 -2.06,4.943 -1.236,1.236 -3.021,2.06 -4.943,2.06 -1.786,0 -3.571,-0.687 -4.944,-2.06 -1.236,-1.236 -2.06,-3.021 -2.06,-4.943 v -69.483 -0.137 -0.137 c 0,-1.786 0.687,-3.571 2.06,-4.944 1.236,-1.236 3.021,-2.06 4.944,-2.06 1.785,0 3.57,0.687 4.943,2.06 1.236,1.236 2.06,3.021 2.06,4.944 v 0.137 0.137 25.816 c 0,0.412 0.137,0.824 0.412,1.098 0.274,0.275 0.686,0.412 1.098,0.412 h 8.514 c 0.412,0 0.824,-0.137 1.099,-0.412 0.137,-0.137 0.274,-0.274 0.274,-0.412 V 151.488 H 95.2905 v 156.267 c 0,15.243 12.3585,27.601 27.6005,27.601 h 95.024 c 3.845,0 7.003,3.159 7.003,7.003 0,3.845 -3.158,7.004 -7.003,7.004 h -95.024 c -22.9317,0 -41.6068,-18.676 -41.6068,-41.608 V 131.028 c 0,-22.932 18.6751,-41.607 41.6068,-41.607 h 193.48 c 22.932,0 41.607,18.675 41.607,41.607 z M 343.972,137.482 v -6.591 c 0,-15.242 -12.358,-27.601 -27.601,-27.601 h -193.48 c -15.242,0 -27.6005,12.359 -27.6005,27.601 v 6.591 z m -78.957,197.6 h -0.138 -16.203 c -0.137,0 -0.275,0 -0.412,-0.138 -0.137,0 -0.275,-0.137 -0.275,-0.274 -0.137,-0.138 -0.137,-0.275 -0.137,-0.412 v -0.412 l 23.756,-59.184 c 0.412,-0.961 0.549,-2.06 0.412,-3.021 -0.137,-1.098 -0.412,-2.06 -1.099,-2.884 -0.549,-0.824 -1.373,-1.51 -2.334,-2.059 -0.961,-0.55 -1.923,-0.687 -3.021,-0.687 h -24.854 -0.412 c -0.962,0 -1.786,0.137 -2.747,0.549 -0.824,0.412 -1.648,0.824 -2.334,1.511 -0.687,0.686 -1.236,1.373 -1.511,2.334 -0.412,0.824 -0.549,1.785 -0.549,2.747 0,0.961 0.137,1.785 0.549,2.746 0.412,0.824 0.824,1.648 1.511,2.334 0.686,0.687 1.373,1.236 2.334,1.511 0.824,0.412 1.785,0.549 2.747,0.549 h 0.274 12.908 c 0.137,0 0.275,0 0.412,0.137 0.137,0 0.275,0.138 0.275,0.275 0.137,0.137 0.137,0.275 0.137,0.412 v 0.412 l -20.598,51.357 c -0.412,0.961 -0.549,1.922 -0.549,2.883 v 6.317 c 0,2.06 0.824,3.982 2.197,5.492 1.511,1.511 3.433,2.198 5.493,2.198 h 24.168 c 0.961,0 1.922,-0.138 2.746,-0.55 0.824,-0.412 1.648,-0.961 2.334,-1.51 0.687,-0.687 1.236,-1.511 1.511,-2.335 0.412,-0.823 0.549,-1.785 0.549,-2.746 0,-1.922 -0.824,-3.707 -2.06,-5.081 -1.373,-1.647 -3.158,-2.471 -5.08,-2.471 z m 45.589,-64.677 c -1.236,-1.373 -3.021,-2.472 -5.218,-3.021 -2.197,-0.686 -4.943,-0.961 -8.514,-0.961 -3.295,0 -7.003,0.275 -9.337,0.961 -2.06,0.549 -3.982,1.511 -5.356,3.021 -1.373,1.511 -2.334,3.57 -2.883,6.042 -0.55,2.472 -0.824,5.63 -0.824,9.475 0,3.708 0,6.591 0.137,8.926 0.137,1.785 0.275,3.707 0.687,5.492 0.274,1.236 0.824,2.335 1.373,3.433 0.686,0.961 1.373,1.785 2.197,2.472 1.098,0.961 2.334,1.922 3.708,2.609 1.51,0.824 3.02,1.648 4.531,2.472 1.51,0.824 3.021,1.648 4.394,2.471 1.373,0.687 2.472,1.648 3.57,2.609 0.412,0.412 0.824,0.962 1.236,1.511 0.275,0.275 0.412,0.687 0.549,1.099 0.138,0.411 0.275,0.686 0.275,1.098 0.137,0.549 0.137,1.099 0.137,1.648 0.138,0.824 0.138,2.06 0.138,3.433 0,2.06 -0.138,3.982 -0.275,6.042 -0.137,1.098 -0.412,2.197 -0.824,3.295 -0.412,0.687 -0.961,1.099 -1.785,1.374 -0.686,0.274 -3.296,0.274 -4.394,0.274 -0.824,0 -1.785,-0.137 -2.609,-0.274 -0.687,-0.275 -1.236,-0.824 -1.648,-1.511 -0.412,-0.961 -0.686,-2.06 -0.824,-3.158 -0.137,-1.785 -0.274,-3.571 -0.274,-5.356 v -0.549 c -0.138,-1.373 -0.962,-2.746 -1.923,-3.57 -1.098,-0.961 -2.472,-1.511 -3.845,-1.511 -1.373,0 -2.746,0.55 -3.845,1.511 -1.098,0.961 -1.785,2.197 -1.922,3.57 v 0.687 0.137 0.137 3.296 c 0,4.119 0.275,7.552 0.824,10.161 0.686,2.609 1.648,4.532 3.021,6.042 1.373,1.511 3.295,2.472 5.218,2.884 2.609,0.549 5.218,0.961 7.827,0.824 3.57,0 8.102,-0.275 10.436,-0.961 2.197,-0.55 4.12,-1.785 5.63,-3.571 1.511,-1.785 2.472,-4.256 3.021,-7.277 0.687,-3.159 0.961,-7.278 0.961,-12.222 0,-3.57 -0.137,-6.454 -0.274,-8.651 0,-1.785 -0.412,-3.707 -0.962,-5.355 -0.412,-1.236 -1.098,-2.472 -2.059,-3.433 -0.962,-0.961 -2.06,-1.785 -3.159,-2.609 -1.098,-0.687 -2.197,-1.236 -3.295,-1.785 -1.236,-0.687 -2.609,-1.373 -3.982,-2.06 -1.374,-0.686 -2.747,-1.373 -3.983,-2.06 -1.098,-0.686 -2.197,-1.373 -3.158,-2.197 -0.412,-0.412 -0.961,-0.824 -1.373,-1.235 -0.275,-0.55 -0.549,-0.962 -0.687,-1.648 -0.137,-0.824 -0.274,-1.648 -0.274,-2.472 v -3.982 c 0,-1.511 0,-3.021 0.274,-4.532 0.138,-0.961 0.412,-1.785 0.824,-2.609 0.412,-0.549 0.961,-0.961 1.648,-1.236 0.687,-0.274 2.472,-0.274 3.57,-0.274 2.335,0 3.845,0.686 4.394,2.06 0.412,0.823 0.687,1.785 0.824,2.746 v 2.884 c 0,1.51 0.687,3.021 1.785,4.119 1.099,1.099 2.609,1.785 4.257,1.785 1.648,0 3.021,-0.686 4.257,-1.785 1.099,-1.098 1.785,-2.609 1.785,-4.119 v -2.884 c 0,-2.746 -0.274,-5.493 -0.824,-8.239 -0.961,-2.472 -1.785,-4.257 -3.158,-5.493 z"
     fill="#000000"
     id="path968"
     sodipodi:nodetypes="scccssccccscssscssssssccsssssccscssssccsssssssssssscssssccscsccscccccscscccscccscsccsccsscsssccscsccscccsccccccccccccscccscccsccscccccscccccccsccccccccccsscccsccssscsscc" />
  <path
     id="path1230"
     style="display:inline;fill:#f15a24;fill-opacity:1"
     d="m 154.49106,164.99702 c -0.63513,0.0515 -1.25206,0.36065 -1.66406,0.91015 l -45.72657,54.37696 c -0.961,0.962 -0.82456,2.60764 0.27344,3.43164 0.55,0.412 1.09944,0.55078 1.64844,0.55078 0.687,0 1.37383,-0.27522 1.92383,-0.82422 l 45.72656,-54.37695 c 0.962,-1.098 0.82389,-2.6096 -0.41211,-3.4336 -0.4805,-0.4805 -1.13441,-0.68626 -1.76953,-0.63476 z m -33.79688,1.32226 c -7.415,0 -13.32031,6.04136 -13.32031,13.31836 0,7.416 6.04231,13.32032 13.32031,13.32032 7.278,-1e-5 13.32032,-6.04232 13.32032,-13.32032 0,-7.415 -6.04232,-13.31836 -13.32032,-13.31836 z m 0,7.6875 c 3.159,0 5.63086,2.60986 5.63086,5.63086 0,3.159 -2.60986,5.62891 -5.63086,5.62891 -3.021,0 -5.6289,-2.46991 -5.6289,-5.62891 0,-3.158 2.6079,-5.63086 5.6289,-5.63086 z M 143.077,196.3896 c -7.278,0 -13.31836,6.04231 -13.31836,13.32031 0,7.415 5.90336,13.32031 13.31836,13.32031 7.415,0 13.32031,-6.04231 13.32031,-13.32031 0,-7.415 -6.04231,-13.32031 -13.32031,-13.32031 z m 0,7.6914 c 3.021,0 5.63086,2.47091 5.63086,5.62891 0,3.158 -2.47286,5.63086 -5.63086,5.63086 -3.158,0 -5.62891,-2.60986 -5.62891,-5.63086 0,-3.158 2.60791,-5.62891 5.62891,-5.62891 z m 30.62304,14.00586 c -1.373,0 -2.47265,1.0977 -2.47265,2.4707 0,1.373 1.09965,2.47266 2.47265,2.47266 h 32.68164 c 1.373,0 2.47071,-1.09966 2.47071,-2.47266 0,-1.373 -1.09771,-2.4707 -2.47071,-2.4707 z" />
</svg>
